<?xml version="1.0" standalone="no"?>
<!DOCTYPE svg PUBLIC "-//W3C//DTD SVG 20010904//EN"
 "http://www.w3.org/TR/2001/REC-SVG-20010904/DTD/svg10.dtd">
<svg version="1.0" xmlns="http://www.w3.org/2000/svg"
 width="160.000000pt" height="160.000000pt" viewBox="0 0 160.000000 160.000000"
 preserveAspectRatio="xMidYMid meet">
<metadata>
Created by potrace 1.11, written by Peter Selinger 2001-2013
</metadata>
<g transform="translate(0.000000,160.000000) scale(0.100000,-0.100000)"
fill="#000000" stroke="none">
<path d="M1442 1578 c-7 -7 -16 -13 -20 -13 -20 -2 -142 -66 -142 -75 0 -6 -4
-9 -9 -6 -5 3 -14 -1 -20 -8 -10 -11 -9 -16 3 -23 14 -7 14 -13 0 -52 -8 -24
-13 -50 -10 -57 4 -10 -151 -165 -329 -329 -12 -11 -42 -39 -67 -63 -24 -23
-55 -45 -69 -47 -13 -3 -34 -7 -47 -9 -30 -7 -62 26 -62 63 0 21 9 37 33 55
17 15 38 31 45 37 20 16 -4 47 -42 55 -68 12 -145 -20 -191 -80 -14 -18 -33
-67 -44 -110 -11 -42 -27 -88 -35 -101 -15 -23 -73 -46 -146 -59 -52 -9 -137
-47 -185 -84 -140 -106 -120 -280 53 -466 21 -21 31 -36 25 -32 -9 5 -13 -1
-13 -18 0 -15 8 -30 20 -36 22 -12 44 -5 35 11 -11 17 6 9 43 -20 86 -67 198
-111 266 -105 119 10 205 112 232 274 16 92 51 140 129 174 92 42 139 109 116
169 -12 31 -29 34 -72 11 -42 -21 -85 -21 -109 1 -27 24 -25 42 10 95 16 25
30 50 30 55 0 13 25 40 257 281 95 99 191 190 213 202 38 20 41 20 70 4 37
-21 42 -16 71 83 19 61 25 70 46 71 54 4 67 75 21 115 -16 13 -33 18 -55 15
-26 -4 -32 -1 -35 15 -2 17 -5 18 -16 7z m8 -32 c0 -3 -4 -8 -10 -11 -5 -3
-10 -1 -10 4 0 6 5 11 10 11 6 0 10 -2 10 -4z m-36 -27 c-6 -11 -24 -2 -24 11
0 5 7 7 15 4 8 -4 12 -10 9 -15z m-35 -8 c9 -6 10 -11 2 -15 -13 -8 -31 1 -31
15 0 11 11 11 29 0z m-38 -34 c-9 -9 -14 -8 -21 3 -16 24 -11 31 11 19 16 -8
18 -14 10 -22z m-36 -8 c10 -15 -1 -23 -20 -15 -9 3 -13 10 -10 16 8 13 22 13
30 -1z"/>
</g>
</svg>
